<?xml version="1.0" standalone="no"?>
<!DOCTYPE svg PUBLIC "-//W3C//DTD SVG 20010904//EN"
 "http://www.w3.org/TR/2001/REC-SVG-20010904/DTD/svg10.dtd">
<svg version="1.0" xmlns="http://www.w3.org/2000/svg"
 width="260.000000pt" height="260.000000pt" viewBox="0 0 260.000000 260.000000"
 preserveAspectRatio="xMidYMid meet">
<metadata>
Created by potrace 1.11, written by Peter Selinger 2001-2013
</metadata>
<g transform="translate(0.000000,260.000000) scale(0.100000,-0.100000)"
fill="#000000" stroke="none">
<path d="M390 2538 c-19 -5 -41 -14 -47 -20 -17 -14 -17 -83 0 -96 7 -6 45
-10 84 -9 l72 2 43 -42 c41 -40 58 -67 94 -150 10 -21 21 -46 25 -55 5 -10 9
-22 9 -28 0 -12 118 -173 134 -182 8 -4 31 22 65 73 29 43 57 79 62 79 5 0 9
8 9 19 0 18 18 64 65 166 46 99 106 141 187 130 39 -6 53 -4 69 11 28 25 25
78 -6 98 -29 19 -141 22 -182 4 -33 -14 -101 -65 -125 -93 -29 -33 -94 -166
-113 -232 -10 -35 -23 -63 -27 -63 -5 0 -13 12 -19 28 -6 15 -15 35 -20 44 -5
10 -9 24 -9 32 0 35 -67 145 -124 202 -49 49 -73 64 -118 78 -63 18 -78 19
-128 4z"/>
<path d="M1275 2360 c-3 -5 -19 -10 -35 -10 -16 0 -35 -6 -42 -13 -7 -7 -24
-17 -38 -23 l-25 -11 42 -22 c23 -11 49 -21 58 -21 8 0 33 -11 55 -25 22 -14
44 -25 49 -25 19 0 148 -139 184 -199 20 -34 37 -66 37 -71 0 -5 10 -25 21
-45 30 -50 39 -31 39 77 0 194 -78 339 -207 385 -45 15 -129 17 -138 3z"/>
<path d="M184 2344 c-49 -11 -164 -155 -164 -205 0 -10 -4 -21 -10 -24 -6 -4
-10 -62 -10 -141 0 -83 4 -134 10 -134 6 0 10 6 10 14 0 8 7 16 15 20 8 3 15
13 15 21 0 20 52 115 97 177 64 88 185 174 263 187 26 5 35 11 35 25 0 35 -61
59 -155 62 -47 1 -95 0 -106 -2z"/>
<path d="M313 2011 c-74 -46 -40 -171 47 -171 93 0 121 140 35 175 -43 19 -44
19 -82 -4z"/>
<path d="M1192 2007 c-24 -25 -29 -75 -12 -108 6 -10 24 -26 41 -35 26 -13 36
-14 63 -3 67 28 87 94 41 143 -33 35 -101 37 -133 3z"/>
<path d="M1120 1708 c-19 -31 -19 -33 -2 -63 35 -59 112 -39 112 29 0 68 -75
91 -110 34z"/>
<path d="M412 1714 c-15 -10 -22 -25 -22 -48 0 -38 14 -53 57 -62 24 -5 35 -1
52 17 27 29 27 59 1 87 -24 26 -57 28 -88 6z"/>
<path d="M1480 1220 c-52 -5 -151 -13 -220 -18 -171 -14 -272 -30 -355 -57
-189 -62 -373 -202 -426 -325 -11 -25 -24 -53 -29 -62 -19 -33 -11 -159 14
-235 27 -79 93 -187 151 -245 39 -39 165 -128 182 -128 6 0 30 -11 54 -24 25
-12 58 -26 74 -29 17 -3 57 -13 90 -22 58 -16 388 -38 600 -39 200 -1 354 52
400 138 11 20 23 36 27 36 5 0 8 32 8 72 0 60 -4 76 -21 95 -18 18 -20 25 -9
38 7 8 19 15 28 15 8 0 71 -34 140 -75 69 -41 133 -75 143 -75 10 0 38 -5 61
-11 67 -18 136 6 165 57 13 21 23 51 23 65 0 32 -34 132 -60 176 -23 40 -25
71 -6 98 15 23 51 124 61 172 8 38 -24 106 -58 125 -35 19 -145 16 -202 -6
-27 -11 -88 -47 -135 -80 -120 -86 -134 -93 -165 -76 -33 18 -32 33 7 82 31
37 33 44 32 117 0 76 -1 79 -40 121 -21 23 -64 55 -95 71 -53 26 -67 29 -200
33 -79 2 -187 0 -239 -4z m-598 -445 c79 -73 20 -202 -90 -198 -44 2 -82 24
-82 48 0 7 -7 18 -15 25 -28 23 -15 75 33 133 11 12 30 17 71 17 46 0 61 -5
83 -25z"/>
</g>
</svg>
