<?xml version="1.0" standalone="no"?>
<!DOCTYPE svg PUBLIC "-//W3C//DTD SVG 20010904//EN"
 "http://www.w3.org/TR/2001/REC-SVG-20010904/DTD/svg10.dtd">
<svg version="1.0" xmlns="http://www.w3.org/2000/svg"
 width="709.000000pt" height="709.000000pt" viewBox="0 0 709.000000 709.000000"
 preserveAspectRatio="xMidYMid meet">
<metadata>
Created by potrace 1.11, written by Peter Selinger 2001-2013
</metadata>
<g transform="translate(0.000000,709.000000) scale(0.100000,-0.100000)"
fill="#000000" stroke="none">
<path d="M4450 7048 c-11 -18 -21 -59 -25 -97 -16 -175 -40 -250 -117 -368
-89 -136 -225 -261 -353 -326 -74 -37 -198 -73 -298 -87 -136 -19 -231 -5
-493 72 l-142 42 31 20 c74 50 95 168 43 246 -45 69 -94 84 -241 77 -266 -13
-507 -134 -695 -351 -41 -47 -76 -80 -77 -74 -44 296 -89 426 -202 583 -65 90
-192 205 -275 249 -139 74 -287 -17 -274 -168 6 -69 31 -102 115 -157 182
-117 311 -301 358 -513 l6 -29 -48 40 c-102 85 -296 203 -434 263 -209 92
-561 169 -712 157 -110 -9 -166 -56 -226 -189 -86 -190 -113 -467 -70 -746 38
-255 139 -483 289 -657 22 -25 40 -49 40 -53 0 -4 -11 -14 -24 -22 -138 -85
-302 -232 -358 -320 -75 -117 -145 -321 -135 -393 16 -116 164 -300 295 -366
143 -72 275 -95 455 -80 194 16 365 70 488 153 l52 35 22 -53 c25 -60 73 -143
118 -199 16 -21 28 -39 26 -41 -2 -1 -42 -10 -89 -20 -574 -120 -1090 -538
-1313 -1066 -134 -319 -185 -703 -136 -1035 37 -250 156 -544 320 -791 137
-206 381 -425 620 -557 157 -87 400 -169 613 -207 160 -29 505 -29 649 1 348
70 690 262 966 542 l74 76 161 -84 c219 -113 318 -150 516 -192 130 -27 430
-24 566 5 111 24 271 77 362 119 362 171 715 515 913 889 29 55 54 101 55 103
2 2 86 -37 186 -87 418 -207 732 -249 930 -123 61 39 82 78 76 148 -8 89 -45
121 -188 163 -102 30 -306 130 -403 198 -44 30 -120 94 -169 140 -100 96 -94
71 -57 231 48 204 179 455 310 596 62 67 83 123 67 182 -28 109 -135 143 -295
95 -191 -58 -401 -276 -601 -622 -90 -156 -83 -148 -118 -123 -84 60 -342 172
-500 217 -479 137 -936 108 -1316 -85 -55 -27 -101 -49 -103 -47 -1 2 -14 41
-30 88 -46 142 -133 320 -222 456 -13 20 -11 24 39 56 29 20 77 47 105 62 29
14 84 47 124 72 96 63 183 101 287 125 72 18 108 20 212 16 388 -15 669 -217
823 -590 17 -44 40 -83 50 -88 52 -28 94 39 108 172 12 122 25 171 70 264 106
221 323 395 583 470 70 20 111 25 197 25 117 0 198 -15 399 -75 175 -52 240
-66 262 -54 41 22 16 93 -92 254 -171 256 -217 391 -207 619 6 145 20 206 75
335 51 116 102 193 187 276 74 73 80 76 235 148 148 68 201 127 153 169 -24
21 -77 35 -201 53 -173 25 -288 82 -418 210 -85 83 -176 213 -220 311 -50 113
-67 214 -61 369 4 136 6 145 56 300 29 88 55 183 58 212 7 66 -3 123 -23 123
-22 0 -105 -44 -238 -128 -252 -158 -407 -209 -601 -199 -253 13 -488 123
-630 294 -36 43 -79 114 -117 193 -72 147 -98 180 -145 180 -27 0 -37 -6 -53
-32z m-3615 -772 c78 -21 187 -74 222 -108 l33 -32 -68 -21 c-145 -46 -248
-127 -340 -268 -28 -42 -53 -74 -55 -70 -12 20 -28 171 -22 212 8 63 52 199
77 239 20 33 60 61 88 61 8 1 38 -5 65 -13z m2068 -44 c6 -36 30 -80 110 -204
21 -32 35 -58 33 -58 -3 0 -43 9 -88 19 -46 11 -126 24 -179 31 -107 12 -399
16 -447 5 -18 -3 -32 -4 -32 -1 0 10 145 118 204 151 107 60 224 93 332 94
l61 1 6 -38z m-1683 -302 c44 -44 32 -108 -28 -143 -29 -17 -39 -18 -73 -8
-44 13 -59 35 -59 84 0 33 26 67 60 80 34 12 81 6 100 -13z m1846 -331 c32 -6
84 -18 114 -28 48 -15 58 -23 78 -61 24 -49 24 -64 -9 -188 -23 -88 -69 -174
-118 -222 -72 -71 -69 -72 -69 37 0 166 -41 289 -136 405 -30 37 -41 58 -33
61 22 9 112 7 173 -4z m-353 -110 c49 -22 75 -111 44 -153 -7 -9 -31 -20 -52
-22 -55 -7 -102 23 -110 70 -16 84 45 138 118 105z m-2095 -1045 c35 -24 54
-69 46 -110 -5 -27 -16 -41 -45 -60 -45 -28 -75 -30 -107 -8 -34 23 -45 59
-31 103 18 58 24 65 60 78 45 16 51 16 77 -3z m2293 -40 c156 -56 267 -146
385 -309 178 -248 215 -496 119 -805 -18 -58 -40 -140 -49 -182 -10 -43 -19
-78 -21 -78 -2 0 -26 24 -52 53 -166 183 -379 348 -566 438 -54 27 -53 15 -16
149 20 72 24 107 24 230 l0 145 -56 160 c-31 88 -59 168 -64 178 -5 13 -2 17
11 18 11 0 42 9 69 19 62 23 120 18 216 -16z m-2131 -146 c0 -28 -4 -30 -72
-41 l-27 -4 25 32 c13 17 29 47 36 66 l12 34 12 -30 c7 -17 13 -42 14 -57z
m1623 -359 c27 -33 30 -64 12 -113 -34 -87 -127 -96 -159 -15 -28 69 -18 106
37 140 38 24 84 19 110 -12z m-235 -26 c-5 -20 -8 -51 -6 -70 2 -18 1 -33 -2
-33 -3 0 -21 16 -40 35 l-34 35 34 35 c45 47 62 46 48 -2z m1357 -2322 c132
-77 77 -291 -76 -291 -73 0 -148 40 -175 93 -14 26 -15 39 -5 83 27 119 152
176 256 115z"/>
</g>
</svg>
